<?xml version="1.0" encoding="UTF-8"?>
<svg width="100px" height="35px" viewBox="0 0 100 35" version="1.1" xmlns="http://www.w3.org/2000/svg" xmlns:xlink="http://www.w3.org/1999/xlink">
    <title>0D2C6E3A-9868-457D-B50A-181B0CEC6A98</title>
    <defs>
        <polygon id="path-1" points="0 34 99.6764988 34 99.6764988 0 0 0"></polygon>
    </defs>
    <g id="Homepage" stroke="none" stroke-width="1" fill="none" fill-rule="evenodd">
        <g id="Minnow-HP-Desktop" transform="translate(-40.000000, -55.000000)">
            <g id="Header" transform="translate(0.000000, 42.135721)">
                <g id="Group-14" transform="translate(40.000000, 13.000000)">
                    <path d="M25.2435644,0.308688866 C23.7684984,0.308688866 22.3873249,0.943484351 21.4198231,2.05726807 C20.4536821,0.943484351 19.0725086,0.308688866 17.5974426,0.308688866 C14.801757,0.308688866 12.5265629,2.58388297 12.5265629,5.38024894 L12.5265629,12.9664972 L15.0664252,12.9664972 L15.0664252,5.38024894 C15.0664252,3.9841071 16.2019811,2.84855119 17.5974426,2.84855119 C18.9922236,2.84855119 20.1264188,3.9841071 20.1264188,5.38024894 L20.1264188,12.7793925 L20.1733651,12.9664972 L22.7139078,12.9664972 L22.7139078,5.38024894 C22.7139078,3.9841071 23.8487833,2.84855119 25.2435644,2.84855119 C26.6383455,2.84855119 27.7739014,3.9841071 27.7739014,5.38024894 L27.7739014,12.9664972 L30.3137637,12.9664972 L30.3137637,5.38024894 C30.3137637,2.58388297 28.03925,0.308688866 25.2435644,0.308688866" id="Fill-1" fill="#006D7D"></path>
                    <path d="M94.9626831,0.479804691 L94.9626831,8.06673337 C94.9626831,9.46151445 93.8278076,10.59639 92.4323461,10.59639 C91.037565,10.59639 89.9026895,9.46151445 89.9026895,8.06673337 L89.9026895,0.666909469 L89.8557432,0.479804691 L87.3152005,0.479804691 L87.3152005,8.06673337 C87.3152005,9.46151445 86.1810054,10.59639 84.7862243,10.59639 C83.3907628,10.59639 82.2565677,9.46151445 82.2565677,8.06673337 L82.2565677,0.479804691 L79.7167054,0.479804691 L79.7167054,8.06673337 C79.7167054,10.8617386 81.9912191,13.1362523 84.7862243,13.1362523 C86.2612903,13.1362523 87.6424638,12.5014568 88.6092852,11.3876731 C89.5761066,12.5014568 90.9565997,13.1362523 92.4323461,13.1362523 C95.2280317,13.1362523 97.501865,10.8617386 97.501865,8.06673337 L97.501865,0.479804691 L94.9626831,0.479804691 Z" id="Fill-3" fill="#006D7D"></path>
                    <path d="M44.0789602,0.308688866 C41.2832746,0.308688866 39.0087609,2.58388297 39.0087609,5.38024894 L39.0087609,12.9664972 L41.5486232,12.9664972 L41.5486232,5.38024894 C41.5486232,3.9841071 42.6841791,2.84855119 44.0789602,2.84855119 C45.4737413,2.84855119 46.6092972,3.9841071 46.6092972,5.38024894 L46.6092972,12.9664972 L49.1498399,12.9664972 L49.1498399,5.38024894 C49.1498399,2.58388297 46.8746458,0.308688866 44.0789602,0.308688866" id="Fill-5" fill="#006D7D"></path>
                    <path d="M57.1916033,0.308688866 C54.3959177,0.308688866 52.121404,2.58388297 52.121404,5.38024894 L52.121404,12.9664972 L54.6619467,12.9664972 L54.6619467,5.38024894 C54.6619467,3.9841071 55.7961418,2.84855119 57.1916033,2.84855119 C58.5863844,2.84855119 59.7219403,3.9841071 59.7219403,5.38024894 L59.7219403,12.9664972 L62.2618026,12.9664972 L62.2618026,5.38024894 C62.2618026,2.58388297 59.9872889,0.308688866 57.1916033,0.308688866" id="Fill-7" fill="#006D7D"></path>
                    <mask id="mask-2" fill="white">
                        <use xlink:href="#path-1"></use>
                    </mask>
                    <g id="Clip-10"></g>
                    <polygon id="Fill-9" fill="#006D7D" mask="url(#mask-2)" points="33.3264228 12.9667014 35.8662851 12.9667014 35.8662851 0.521852237 33.3264228 0.521852237"></polygon>
                    <path d="M71.0044945,10.6712319 C68.7626391,10.6712319 66.9385376,8.84781077 66.9385376,6.60595533 C66.9385376,4.3640999 68.7626391,2.5399984 71.0044945,2.5399984 C73.24635,2.5399984 75.0704515,4.3640999 75.0704515,6.60595533 C75.0704515,8.84781077 73.24635,10.6712319 71.0044945,10.6712319 M71.0044945,0.000136076203 C67.3617346,0.000136076203 64.3979949,2.96387577 64.3979949,6.60595533 C64.3979949,10.2480349 67.3617346,13.2117746 71.0044945,13.2117746 C74.6472545,13.2117746 77.6103138,10.2480349 77.6103138,6.60595533 C77.6103138,2.96387577 74.6472545,0.000136076203 71.0044945,0.000136076203" id="Fill-11" fill="#006D7D" mask="url(#mask-2)"></path>
                    <path d="M10.7136877,20.1679901 C23.3619707,28.8809493 38.6753062,34.0001361 55.1949572,34.0001361 C71.7146082,34.0001361 87.028624,28.8809493 99.6769071,20.1679901 L10.7136877,20.1679901 Z" id="Fill-12" fill="#39C1D6" mask="url(#mask-2)"></path>
                    <path d="M6.80381016e-05,13.2279677 L6.80381016e-05,20.1787401 L10.8507844,20.1787401 C7.44479709,17.5742416 3.81292324,15.2527816 6.80381016e-05,13.2279677" id="Fill-13" fill="#39C1D6" mask="url(#mask-2)"></path>
                </g>
            </g>
        </g>
    </g>
</svg>